<svg width="13" height="14" viewBox="0 0 13 14" fill="none" xmlns="http://www.w3.org/2000/svg">
<path id="Vector" d="M6.125 0C5.635 0 5.25 0.385 5.25 0.875V1.75H3.9375C3.6925 1.75 3.5 1.9425 3.5 2.1875V3.5H8.75V2.1875C8.75 1.9425 8.5575 1.75 8.3125 1.75H7V0.875C7 0.385 6.615 0 6.125 0ZM0.4375 1.75C0.1925 1.75 0 1.9425 0 2.1875V13.5625C0 13.8075 0.1925 14 0.4375 14H11.8125C12.0575 14 12.25 13.8075 12.25 13.5625V2.1875C12.25 1.9425 12.0575 1.75 11.8125 1.75H10.5V5.25H1.75V1.75H0.4375Z" fill="#FAFAFA"/>
</svg>
